<?xml version="1.0" standalone="no"?><!DOCTYPE svg PUBLIC "-//W3C//DTD SVG 1.1//EN" "http://www.w3.org/Graphics/SVG/1.1/DTD/svg11.dtd"><svg t="1605336720202" class="icon" viewBox="0 0 1024 1024" version="1.1" xmlns="http://www.w3.org/2000/svg" p-id="2839" xmlns:xlink="http://www.w3.org/1999/xlink" width="300" height="300"><defs><style type="text/css"></style></defs><path d="M365.714 512c-0.02-8.722 3.034-17.445 9.145-24.039 0.5-0.538 1.011-1.054 1.535-1.548L605.95 229.478c11.817-13.227 31.155-13.422 43.191-0.436 12.036 12.987 12.214 34.237 0.396 47.464L439.138 512l210.4 235.494c11.817 13.227 11.64 34.477-0.397 47.464-12.036 12.986-31.374 12.791-43.191-0.436L376.394 537.587a32.315 32.315 0 0 1-1.535-1.548c-6.11-6.594-9.165-15.317-9.145-24.039z" p-id="2840"></path></svg>