<?xml version="1.0" standalone="no"?><!DOCTYPE svg PUBLIC "-//W3C//DTD SVG 1.1//EN" "http://www.w3.org/Graphics/SVG/1.1/DTD/svg11.dtd"><svg t="1604882658439" class="icon" viewBox="0 0 1024 1024" version="1.1" xmlns="http://www.w3.org/2000/svg" p-id="7316" xmlns:xlink="http://www.w3.org/1999/xlink" width="300" height="300"><defs><style type="text/css"></style></defs><path d="M511.9 46c-150.1 0-272.4 121.8-272.4 271.5 0 110.5 66.7 205.6 162 248C222.2 619.1 108.4 784 107.5 955c0 0.2-0.1 0.3-0.1 0.6 0 0.1 0.1 0.2 0.1 0.3 0 0.5-0.1 0.8-0.1 1.3h0.3c0.9 10.7 9.6 19.3 20.6 19.3 11 0 19.8-8.6 20.6-19.3h0.3c0-208.9 168.4-368 377.9-368v-0.8c143.1-7.9 257.2-126.2 257.2-270.8C784.3 167.8 662.1 46 511.9 46z m0 501.3c-127.1 0-230.5-103.1-230.5-229.7 0-126.7 103.4-229.8 230.5-229.8s230.5 103.1 230.5 229.8c0 126.7-103.4 229.7-230.5 229.7z m404.7 408.2c0-0.2-0.1-0.5-0.1-0.7-0.8-124.6-63.1-253.3-168.5-328.5l-0.2 0.3c-3.4-2.3-7.1-4-11.6-4-11.5 0-20.9 9.4-20.9 20.9 0 6.6 3.2 12.2 7.9 16l-0.2 0.3c94.9 67.8 151.6 172 151.6 297.3h0.3c0.8 10.7 9.6 19.3 20.6 19.3 11 0 19.8-8.6 20.6-19.3h0.3c0-0.5-0.1-0.8-0.1-1.2 0.1-0.2 0.3-0.3 0.3-0.4z m0 0" p-id="7317" fill="#fa8072"></path></svg>