<?xml version="1.0" standalone="no"?><!DOCTYPE svg PUBLIC "-//W3C//DTD SVG 1.1//EN" "http://www.w3.org/Graphics/SVG/1.1/DTD/svg11.dtd"><svg t="1605337099169" class="icon" viewBox="0 0 1024 1024" version="1.1" xmlns="http://www.w3.org/2000/svg" p-id="6205" xmlns:xlink="http://www.w3.org/1999/xlink" width="300" height="300"><defs><style type="text/css"></style></defs><path d="M262.7 893.6c0 35.6 28.9 64.5 64.5 64.5s64.5-28.9 64.5-64.5-28.9-64.5-64.5-64.5-64.5 28.9-64.5 64.5z m451.6 0c0 35.6 28.9 64.5 64.5 64.5s64.5-28.9 64.5-64.5-28.9-64.5-64.5-64.5c-35.7 0-64.5 28.9-64.5 64.5z m181.2-141.3h-516c-27.6 0-55.3-24.6-61.4-52.2L226 156.4c-9.2-52.2-58.4-92.1-110.6-92.1H93.8c-12.3 0-24.6 12.3-24.6 24.6s12.3 24.6 24.6 24.6h21.5c27.6 0 55.3 24.6 61.4 52.2l92.1 543.7c9.2 52.2 58.4 92.1 110.6 92.1h516c12.3 0 24.6-12.3 24.6-24.6s-9.2-24.6-24.5-24.6z m0 0" p-id="6206" fill="#707070"></path><path d="M870.9 190.2H321.1c-12.3 0-24.6 12.3-24.6 24.6s12.3 24.6 24.6 24.6h549.8c24.6 0 36.9 15.4 30.7 39.9L834 549.6c-6.1 30.7-39.9 55.3-70.6 58.4l-380.9 27.6c-12.3 0-24.6 12.3-21.5 27.6 0 12.3 12.3 24.6 27.6 21.5l380.9-27.6c52.2-3.1 101.4-46.1 113.6-95.2l67.6-270.3c12.4-52.2-24.5-101.4-79.8-101.4z m0 0" p-id="6207" fill="#707070"></path></svg>